<?xml version="1.0" encoding="UTF-8" standalone="no"?>
<!DOCTYPE svg PUBLIC "-//W3C//DTD SVG 1.1//EN" "http://www.w3.org/Graphics/SVG/1.1/DTD/svg11.dtd">
<svg width="100%" height="100%" viewBox="0 0 842 596" version="1.1" xmlns="http://www.w3.org/2000/svg" xmlns:xlink="http://www.w3.org/1999/xlink" xml:space="preserve" xmlns:serif="http://www.serif.com/" style="fill-rule:evenodd;clip-rule:evenodd;stroke-miterlimit:10;">
    <g>
        <path d="M568.396,136.004C558.257,137.701 549.679,140.814 541.107,145.518C531.676,150.778 522.688,157.131 512.854,161.416C507.589,163.807 501.989,165.267 496.327,165.559C487.696,166.292 479.165,164.059 470.884,161.559C464.18,159.39 457.513,157.072 450.822,154.852C447.65,153.803 445.2,152.799 441.262,151.895C446.241,152.453 451.043,154.212 455.948,155.276C466.399,158.155 477.004,160.59 487.765,161.231C494.219,161.691 500.724,160.67 506.93,158.662C524.825,152.527 541.014,139.779 559.485,135.534C566.607,134.058 583.494,132.459 595.072,135.91C586.413,134.248 573.935,135.16 568.396,136.004Z" style="fill:rgb(26,26,26);fill-rule:nonzero;"/>
        <path d="M342.544,153.535C329.8,151.539 307.304,144.124 294.54,142.279C248.846,135.675 212.491,138.577 168.141,154.414C162.673,156.034 157.456,158.578 151.987,160.161C155.125,158.304 158.563,157.252 161.839,155.775C211.552,133.331 269.143,134.778 321.165,143.825C338.932,146.88 356.371,152.701 374.403,153.555C371.948,153.745 369.9,154.036 366.531,154.397C362.063,154.14 350.559,154.785 342.544,153.535Z" style="fill:rgb(26,26,26);fill-rule:nonzero;"/>
        <path d="M34.471,150.885C42.67,148.864 51.267,148.475 59.49,150.557C68.803,152.771 77.365,157.752 85.652,162.898C90.031,165.758 95.024,168.548 99.209,171.774C96.256,172.882 87.775,176.524 85.494,177.597C71.08,168.679 56.364,158.454 40.045,154.923C32.845,153.218 25.437,154.213 18.279,155.674C19.444,155.127 20.622,154.605 21.799,154.084C20.699,153.521 5.797,147.203 5.797,147.634L5.797,141.665C10.991,143.072 16.141,145.016 21.095,147.277C25.132,149.118 29.996,151.991 34.471,150.885Z" style="fill:rgb(26,26,26);fill-rule:nonzero;"/>
        <path d="M495.104,158.942C487.145,159.743 478.288,159.034 470.369,157.598C474.186,157.782 481.782,157.846 485.398,157.45C497.692,156.096 506.885,153.591 515.377,150.787C522.492,148.439 529.343,145.246 537.027,142.632C533.59,144.046 531.368,145.307 528.476,146.644C517.21,151.857 507.015,157.612 495.104,158.942Z" style="fill:rgb(26,26,26);fill-rule:nonzero;"/>
        <path d="M68.21,150.583C76.64,150.956 85.218,152.585 92.8,156.979C98.577,159.994 103.907,163.968 109.138,168.059C107.649,168.71 105.649,169.323 104.108,169.802C93.143,162.658 81.631,151.177 68.21,150.583Z" style="fill:rgb(26,26,26);fill-rule:nonzero;"/>
        <path d="M86.138,151.476C95.086,150.649 104.249,150.824 113.031,153.155C120.443,155.143 127.525,158.555 134.238,162.601C129.269,163.168 124.382,164.395 119.426,165.019C113.466,160.256 105.844,156.567 98.946,154.077C94.786,152.574 90.417,152.272 86.138,151.476Z" style="fill:rgb(26,26,26);fill-rule:nonzero;"/>
        <path d="M692.639,186.325C690.355,185.299 687.9,184.044 686.23,183.116C681.758,180.449 677.046,177.964 672.784,175.299C683.284,171.934 694.209,169.723 705.93,170.434C713.25,170.776 726.419,173.585 741.114,178.531C728.187,180.763 715.237,182.838 702.293,184.933C698.658,185.499 695.389,185.987 692.639,186.325Z" style="fill:rgb(26,26,26);fill-rule:nonzero;"/>
        <path d="M742.913,178.213C726.527,169.607 712.939,164.564 706.948,163.68C692.395,160.037 678.341,163.23 666.115,167.057C664.026,167.777 663.065,168.089 661.575,168.55C659.451,167.019 656.157,165.114 654.259,163.885C658.434,162.414 662.628,161.011 666.853,159.707C686.538,153.785 702.148,157.921 721.47,162.324C733.141,165.093 745.029,167.196 756.992,166.573C784.117,165.382 810.273,156.327 836.846,150.91L836.846,163.947C817.72,166.139 798.5,167.539 779.536,171.248C767.362,173.824 755.148,176.091 742.913,178.213Z" style="fill:rgb(26,26,26);fill-rule:nonzero;"/>
        <path d="M646.193,158.891C651.821,157.993 657.522,156.953 663.17,156.212C667.23,155.615 671.243,155.199 675.353,155.337C667.863,156.476 661.814,158.236 656.623,159.483C653.631,160.201 651.634,160.564 649.934,161.137C648.519,160.235 647.224,159.542 646.193,158.891Z" style="fill:rgb(26,26,26);fill-rule:nonzero;"/>
        <path d="M5.796,155.086C6.933,155.914 8.173,156.418 11.716,157.223C10.57,157.816 6.948,159.282 5.796,159.854L5.795,155.083C5.795,155.084 5.796,155.084 5.796,155.086Z" style="fill:rgb(26,26,26);fill-rule:nonzero;"/>
        <path d="M61.249,185.44C55.575,186.62 43.044,187.673 29.413,189.983C27.338,190.335 23.04,186.979 20.22,184.956C13.98,180.483 10.583,178.986 5.796,177.569L5.796,162.461C13.278,162.622 20.712,164.266 27.751,167.136C39.194,171.802 51.743,176.602 61.249,185.44Z" style="fill:rgb(26,26,26);fill-rule:nonzero;"/>
        <path d="M773.803,211.118C769.465,209.551 765.011,208.039 760.45,206.601C778.699,199.303 796.557,190.537 815.551,185.971C822.535,184.143 829.702,183.545 836.847,183.18L836.847,183.751C816.084,191.836 795.97,201.874 775.368,210.451C774.848,210.649 774.325,210.879 773.803,211.118Z" style="fill:rgb(26,26,26);fill-rule:nonzero;"/>
        <path d="M46.924,205.687C55.189,200.33 63.729,195.459 72.666,191.733C86.124,186.142 100.519,183.402 114.85,184.08C130.376,184.8 145.747,188.446 160.434,194.169C181.578,202.175 201.58,213.557 221.143,225.602C254.908,246.489 287.58,269.775 322.643,287.84C348.699,301.477 375.791,312.877 403.921,319.514C439.342,328.17 476.651,328.096 511.695,317.247C533.021,310.746 553.477,301.107 573.604,290.885C600.488,277.156 626.852,262.088 654.211,249.577C675.645,239.735 697.804,231.546 720.73,227.714C735.844,225.167 751.213,225.306 766.405,226.878C790.355,229.573 813.874,235.996 836.846,244.016L836.846,289.388C815.248,285.854 793.431,283.513 771.596,283.786C744.118,283.294 717.454,286.843 690.747,293.819C667.631,299.907 667.631,299.907 646.747,306.95C642.54,308.462 636.965,310.232 624.749,314.768C582.352,317.655 528.88,324.839 486.234,336.626C466.927,342.068 447.97,349.029 429.309,356.844C427.275,356.879 426.658,356.725 425.571,356.731C387.886,354.733 351.109,347.077 314.809,335.62C280.861,325.099 247.894,311.013 214.964,297.002C191.272,286.968 167.482,277.146 143.142,269.328C118.818,261.677 93.775,256.16 68.463,255.943C47.187,255.409 25.997,259.847 5.794,267.262L5.794,238.485C8.394,235.942 11.232,233.738 13.905,231.3C24.638,222.32 35.406,213.326 46.924,205.687Z" style="fill:rgb(26,26,26);fill-rule:nonzero;"/>
        <path d="M777.679,212.542C783.325,210.16 788.999,207.869 794.595,205.346C808.634,199.02 822.688,192.735 836.847,186.793L836.847,207.139C823.959,211.956 811.004,216.598 797.954,220.824C791.546,217.984 784.775,215.197 777.679,212.542Z" style="fill:rgb(26,26,26);fill-rule:nonzero;"/>
        <path d="M54.327,197.656C49.759,199.849 42.813,202.467 33.522,210.22C31.778,211.587 23.026,218.415 18.751,222.504C13.813,222.977 10.738,222.932 5.795,223.212L5.795,197.228C12.161,197.853 14.763,197.719 21.713,197.942C33.522,198.246 44.339,198.043 54.327,197.656Z" style="fill:rgb(26,26,26);fill-rule:nonzero;"/>
        <path d="M823.087,233.07C826.767,232.509 835.177,231.57 836.847,231.073L836.847,239.628C835.892,239.143 832.653,237.819 829.38,236.498C827.356,235.372 825.258,234.229 823.087,233.07Z" style="fill:rgb(26,26,26);fill-rule:nonzero;"/>
        <path d="M540.006,342.07C565.526,335.529 591.442,331.138 617.47,328.292C665.871,322.959 714.608,322.904 763.157,325.192C787.722,325.796 812.269,327.411 836.847,327.436L836.847,351.718C828.593,352.437 820.441,354.109 812.23,355.241C756.155,363.747 700.316,374.534 645.169,388.983C590.642,403.27 536.813,421.284 484.581,444.206C450.545,459.171 417.107,475.852 384.054,493.435L241.908,493.435C291.989,462.814 341.449,430.783 392.74,402.813C439.866,377.061 488.795,354.764 540.006,342.07Z" style="fill:rgb(26,26,26);fill-rule:nonzero;"/>
        <path d="M272.517,389.087C307.727,388.297 337.249,384.668 373.583,380.936C368.75,384.185 325.891,407.856 331.145,404.737C297.428,413.311 263.789,422.299 229.9,429.96C192.178,438.496 154.054,444.962 115.683,448.113C79.101,451.057 42.262,451.009 5.795,446.264L5.795,353.359C23.318,359.116 49.27,365.911 61.248,368.756C140.845,387.668 192.283,390.888 272.517,389.087Z" style="fill:rgb(26,26,26);fill-rule:nonzero;"/>
        <path d="M270.37,438.346C275.665,435.862 308.309,419.784 313.545,417.133C313.395,417.677 217.782,473.309 175.704,493.436L94.579,493.436C111.301,490.588 127.954,487.161 144.406,482.702C195.351,469.186 221.927,460.389 270.37,438.346Z" style="fill:rgb(26,26,26);fill-rule:nonzero;"/>
        <path d="M836.847,493.436L623.891,493.436C692.712,455.282 764.13,432.8 836.847,417.133L836.847,493.436Z" style="fill:rgb(26,26,26);fill-rule:nonzero;"/>
        <path d="M785.198,180.224C768.665,185.86 753.505,193.631 737.388,200.239C730.504,198.616 723.442,197.199 716.225,196.042C721.176,194.697 726.144,193.43 731.018,191.74C750.757,185.226 770.019,176.647 790.276,172.313C805.645,169.025 821.302,168.215 836.846,166.563L836.846,177.703C833.668,176.557 830.321,176.198 827.051,175.563C813.013,173.152 798.71,175.726 785.198,180.224Z" style="fill:rgb(26,26,26);fill-rule:nonzero;"/>
        <path d="M223.771,179.767C242.917,187.242 262.059,196.469 280.572,205.392C301.291,215.379 322.327,225.514 344.355,233.795C349.562,235.871 354.8,237.845 360.082,239.683C394.197,251.709 429.967,259.234 465.799,256.816C484.16,255.727 502.405,252.09 520.033,246.133C557.59,233.554 593.082,214 631.029,202.821C643.835,199.079 656.928,196.313 670.14,195.54C686.076,196.847 702.013,198.549 717.329,201.538C709.754,201.281 702.185,201.917 692.011,203.499C680.093,205.262 668.394,208.585 656.948,212.711C611.649,229.253 570.623,257.738 525.742,275.523C507.074,282.92 487.549,287.766 467.773,288.748C431.469,290.559 395.408,281.146 361.72,266.262C332.96,253.713 305.662,237.292 278.82,220.205C255.535,205.49 232.297,190.502 207.658,178.87C188.705,170.095 168.678,163.239 148.139,162.517C177.925,160.762 223.278,179.563 223.771,179.767Z" style="fill:rgb(26,26,26);fill-rule:nonzero;"/>
        <path d="M353.512,228.823C334.11,225.119 321.478,221.923 303.438,214.129C297.085,211.148 290.783,208.121 284.511,205.098C305.866,212.895 324.941,215.334 325.191,215.365C339.255,217.441 354.466,219.707 366.249,219.707C396.577,219.707 417.706,222.29 446.685,216.663C463.23,213.452 476.052,210.634 494.84,206.582C508.269,203.689 538.851,198.407 550.212,197.302C539.924,199.585 493.547,212.22 482.919,216.002C441.185,230.849 394.817,236.701 353.512,228.823Z" style="fill:rgb(26,26,26);fill-rule:nonzero;"/>
        <path d="M423.611,172.48C443.139,175.064 467.236,179.773 487.454,178.717C487.376,178.738 487.296,178.762 487.218,178.786C466.896,184.623 445.873,189.193 425.035,188.294C398.281,187.373 374.1,180.953 347.365,183.979C335.3,185.331 321.046,186.392 309.109,188.744C306.505,189.161 304.903,189.588 302.181,190.01C312.866,185.622 338.304,175.678 353.973,172.319C376.951,167.293 400.534,169.483 423.611,172.48Z" style="fill:rgb(26,26,26);fill-rule:nonzero;"/>
        <path d="M239.703,184.236C234.834,182.138 229.954,180.117 225.069,178.211C224.071,177.794 212.52,173.009 197.411,168.53C199.194,168.539 204.28,168.508 205.448,168.423C216.057,168.083 229.289,170.722 239.634,173.443C253.208,176.977 259.336,180.667 273.131,183.063C283.552,184.876 294.306,184.214 304.478,181.02C326.803,173.98 346.953,159.402 370.135,155.624C382.194,153.554 394.497,154.221 406.548,156.098C434.432,160.203 466.167,173.433 494.177,176.658C492.548,177.211 490.906,177.716 489.259,178.198C484.745,177.525 477.427,176.29 473.932,175.827C454.658,173.312 435.804,167.924 416.721,164.101C399.361,160.652 381.484,158.938 364.008,162.36C351.858,164.614 340.428,170.05 329.171,175.529C317.243,181.326 305.28,187.653 292.568,190.826C286.021,191.447 280.574,192.089 277.012,192.54C270.73,192.402 264.457,191.447 258.327,189.925C252.021,188.44 245.852,186.382 239.703,184.236Z" style="fill:rgb(26,26,26);fill-rule:nonzero;"/>
        <path d="M501.995,169.35C507.546,168.762 512.866,166.791 518.112,164.738C511.631,168.031 508.681,169.449 503.946,172.056C503.284,172.34 499.968,174.094 499.741,174.228C482.846,173.843 465.347,167.544 449.434,161.971C433.498,156.315 416.985,152.154 400.221,152.149C394.496,151.995 389.633,152.008 383.06,152.197C387.372,151.386 391.745,151.142 396.104,150.84C407.56,150.232 419.132,149.704 430.517,151.688C448.203,154.55 464.397,163.882 481.829,167.935C488.425,169.612 495.264,170.27 501.995,169.35Z" style="fill:rgb(26,26,26);fill-rule:nonzero;"/>
        <path d="M401.29,239.78C421.321,239.1 440.566,236.393 462.429,230.772C485.636,224.811 500.469,219.099 522.065,210.21C541.518,202.206 573.425,195.798 588.385,195.275C575.012,198.426 564.572,201.296 556.384,204.524C539.338,211.243 520.932,220.032 504.918,224.92C491.46,229.026 441.261,246.891 401.29,239.78Z" style="fill:rgb(26,26,26);fill-rule:nonzero;"/>
        <path d="M156.11,160.673C166.444,158.472 176.765,156.194 187.069,153.814C203.699,149.97 220.525,146.117 237.581,146.599C259.588,146.656 281.023,153.078 302.829,155.534C317.643,157.414 332.6,157.317 347.468,156.413C353.126,156.082 357.364,155.612 363.107,155.106C357.321,156.463 352.525,157.625 346.768,159.552C330.251,165.082 313.435,170.735 295.687,170.233C269.976,169.612 245.596,156.966 219.75,158.218C205.874,158.702 192.206,161.54 178.481,163.702C170.985,162.134 163.323,160.982 156.11,160.673Z" style="fill:rgb(26,26,26);fill-rule:nonzero;"/>
        <path d="M538.995,227.356C519.537,234.294 506.095,240.09 485.939,243.745C471.881,246.294 444.921,249.232 427.238,246.078C460.339,243.041 497.223,233.881 526.715,222.627C532.357,220.473 537.992,218.161 543.962,215.714C551.229,212.734 558.605,209.71 566.062,206.955C566.443,206.818 566.742,206.706 566.941,206.635C589.219,198.469 616.641,192.17 642.129,193.436C643.397,193.531 644.691,193.621 645.97,193.715C642.416,193.878 638.667,194.187 634.145,194.56C600.473,198.141 571.097,216.078 538.995,227.356Z" style="fill:rgb(26,26,26);fill-rule:nonzero;"/>
        <path d="M554.271,168.246C570.892,164.785 588.261,165.617 604.417,171.4C618.966,176.633 627.919,182.473 642.178,189.247C642.429,189.366 642.746,189.51 643.092,189.668C633.542,189.169 624.166,188.875 614.182,188.852C608.039,186.53 600.93,183.762 596.474,182.892C581.019,180.054 572.446,179.462 557.005,181.991C542.642,184.357 527.428,191.427 513.022,196.031C500.897,197.545 488.066,199.221 475.768,200.822C476.892,200.236 478.129,199.581 479.761,198.78C504.127,186.794 528.092,173.583 554.271,168.246Z" style="fill:rgb(26,26,26);fill-rule:nonzero;"/>
        <path d="M430.247,242.257C430.139,242.266 430.031,242.276 429.924,242.286C430.028,242.262 430.132,242.244 430.236,242.219L430.247,242.257Z" style="fill:rgb(26,26,26);fill-rule:nonzero;"/>
        <path d="M401.372,202.646C406.094,203.915 411.374,206.453 416.091,208.295C409.392,208.706 402.495,209.031 395.466,209.251C392.588,209.308 389.728,209.379 386.861,209.464C367.261,209.818 346.86,209.264 326.979,207.223C340.776,204.336 355.997,199.071 369.705,198.831C380.335,198.85 391.009,199.877 401.372,202.646Z" style="fill:rgb(26,26,26);fill-rule:nonzero;"/>
        <path d="M283.12,197.361C293.513,198.648 295.465,199.332 305.576,202.4C306.888,202.796 311.065,204.318 314.474,205.732C299.09,203.617 284.216,200.497 270.476,196.109C274.701,196.582 278.958,196.846 283.12,197.361Z" style="fill:rgb(26,26,26);fill-rule:nonzero;"/>
        <path d="M670.644,191.521C654.925,183.595 640.228,173.929 624.82,165.186C614.187,159.219 603.093,153.985 591.383,151.537C578.601,148.987 565.447,150.883 552.994,154.59C539.976,158.729 527.504,164.835 515.465,171.773C499.212,180.857 486.013,189.692 469.612,198.437C466.948,199.821 463.148,201.426 459.394,202.94C451.078,204.005 443.337,204.975 436.638,205.755C432.769,204.132 428.912,202.44 425.034,200.851C427.054,200.518 429.08,200.225 431.114,199.941C456.945,196.777 481.534,186.122 504.747,173.243C519.947,164.601 534.785,155.056 550.568,147.815C562.615,142.465 575.444,138.219 588.505,139.218C601.838,139.922 614.533,145.396 626.483,151.822C641.889,160.153 656.311,170.609 671.607,179.182C681.535,184.967 691.827,189.922 702.338,194.17C699.739,193.888 697.127,193.633 694.497,193.42C685.907,192.736 678.055,192.097 670.644,191.521Z" style="fill:rgb(26,26,26);fill-rule:nonzero;"/>
        <path d="M279.062,194.112C282.153,194.067 285.486,193.358 288.549,193.043C304.677,191.376 321.406,190.71 337.661,191.926C342.359,192.275 345.709,192.598 350.234,193.501C354.127,194.279 358.179,195.149 363.527,196.474C359.041,197.121 354.569,197.939 350.097,198.648C346.175,199.35 342.296,200.117 338.384,201.064C334.343,200.654 330.852,199.708 327.113,198.888C315.482,196.13 303.638,194.596 291.773,194.029C287.535,193.831 283.298,194.047 279.062,194.112Z" style="fill:rgb(26,26,26);fill-rule:nonzero;"/>
        <path d="M419.579,207.491C407.347,200.976 398.157,196.251 380.903,195.398C379.55,195.336 374.052,195.327 372.706,195.35C378.667,194.084 387.757,192.933 394.03,193.634C406.185,194.757 417.595,200.232 428.269,206.687C424.899,207.042 421.966,207.318 419.579,207.491Z" style="fill:rgb(26,26,26);fill-rule:nonzero;"/>
    </g>
    <g transform="matrix(1,0,0,1,0,1)">
        <g>
            <g>
                <g transform="matrix(1,0,0,1,0,-15)">
                    <path d="M381.624,340.725C381.624,340.423 381.732,340.168 381.944,339.962C382.153,339.746 382.407,339.639 382.708,339.639L386.249,339.639C386.551,339.639 386.805,339.746 387.011,339.962C387.228,340.168 387.335,340.423 387.335,340.725L387.335,340.749C387.335,341.043 387.228,341.297 387.011,341.512C386.805,341.727 386.551,341.836 386.249,341.836L385.761,341.836C385.458,341.836 385.202,341.938 384.996,342.147C384.781,342.363 384.673,342.616 384.673,342.909L384.673,361.051C384.673,361.352 384.781,361.605 384.996,361.812C385.202,362.028 385.458,362.134 385.761,362.134L386.249,362.134C386.551,362.134 386.805,362.238 387.011,362.446C387.228,362.661 387.335,362.919 387.335,363.221L387.335,363.233C387.335,363.534 387.228,363.794 387.011,364.008C386.805,364.214 386.551,364.319 386.249,364.319L382.708,364.319C382.407,364.319 382.153,364.215 381.944,364.008C381.732,363.793 381.624,363.533 381.624,363.233L381.624,340.725Z" style="fill:white;fill-rule:nonzero;"/>
                </g>
                <g transform="matrix(1,0,0,1,0,-15)">
                    <path d="M408.501,356.691C408.501,357.199 408.319,357.638 407.96,358.008C407.597,358.371 407.157,358.55 406.642,358.55L406.601,358.55C406.085,358.55 405.645,358.371 405.282,358.008C404.924,357.638 404.743,357.198 404.743,356.691L404.743,350.928C404.743,350.298 404.514,349.765 404.056,349.325C403.609,348.886 403.066,348.675 402.429,348.691C401.825,348.71 401.313,348.95 400.888,349.415C400.478,349.873 400.271,350.407 400.271,351.018L400.271,356.691C400.271,357.199 400.09,357.638 399.726,358.008C399.357,358.371 398.917,358.55 398.412,358.55L398.035,358.55C397.519,358.55 397.078,358.371 396.719,358.008C396.348,357.638 396.164,357.198 396.164,356.691L396.164,350.928C396.164,350.298 395.939,349.765 395.488,349.325C395.033,348.886 394.49,348.675 393.862,348.691C393.258,348.71 392.748,348.95 392.326,349.415C391.912,349.873 391.705,350.407 391.705,351.018L391.705,356.691C391.705,357.199 391.519,357.638 391.148,358.008C390.787,358.371 390.346,358.55 389.83,358.55L389.547,358.55C389.039,358.55 388.598,358.371 388.23,358.008C387.867,357.638 387.686,357.198 387.686,356.691L387.686,347.025C387.686,346.673 387.811,346.373 388.063,346.122C388.311,345.865 388.618,345.735 388.978,345.735L390.477,345.735C390.832,345.735 391.133,345.865 391.382,346.122C391.633,346.373 391.757,346.674 391.757,347.025L391.757,347.04C391.86,346.971 391.998,346.85 392.17,346.678C392.403,346.446 392.566,346.289 392.659,346.213C393.094,345.832 393.557,345.594 394.055,345.488C396.306,345.024 398.004,345.748 399.16,347.66L399.25,347.66C400.586,346.358 401.598,345.635 402.287,345.488C404.26,345.075 405.824,345.595 406.978,347.051C407.986,348.31 408.494,349.95 408.501,351.975L408.501,356.691Z" style="fill:white;fill-rule:nonzero;"/>
                </g>
                <g transform="matrix(1,0,0,1,0,-15)">
                    <path d="M409.936,352.027C409.936,350.217 410.544,348.675 411.757,347.4C412.971,346.127 414.437,345.488 416.152,345.488C417.597,345.488 418.601,346.127 419.162,347.4L419.162,347.386C419.162,346.973 419.308,346.62 419.6,346.327C419.894,346.035 420.248,345.889 420.662,345.889L421.723,345.889C422.143,345.889 422.497,346.035 422.792,346.327C423.096,346.629 423.242,346.987 423.242,347.399L423.242,357.724C423.242,357.957 423.162,358.15 423,358.305C422.836,358.467 422.643,358.549 422.42,358.549L420.715,358.549C420.454,358.549 420.107,358.314 419.668,357.84C419.477,357.642 419.251,357.525 418.995,357.49C418.726,357.455 418.481,357.511 418.258,357.658C417.346,358.254 416.644,358.549 416.153,358.549C414.438,358.549 412.972,357.913 411.758,356.638C410.544,355.364 409.936,353.828 409.936,352.027ZM413.812,351.923C413.812,352.898 414.069,353.728 414.587,354.418C415.112,355.098 415.746,355.439 416.486,355.439C416.924,355.508 417.364,355.469 417.805,355.323C418.683,355.022 419.135,354.337 419.16,353.268L419.16,350.038C418.961,349.504 418.488,349.091 417.738,348.798C416.877,348.461 416.015,348.503 415.155,348.928C414.741,349.126 414.41,349.495 414.161,350.038C413.926,350.555 413.81,351.132 413.81,351.769L413.81,351.923L413.812,351.923Z" style="fill:white;fill-rule:nonzero;"/>
                </g>
                <g transform="matrix(1,0,0,1,0,-15)">
                    <path d="M427.029,358.551C426.444,358.551 425.944,358.346 425.532,357.933C425.127,357.527 424.925,357.033 424.925,356.446L424.925,347.906C424.925,347.33 425.127,346.835 425.532,346.42C425.944,346.007 426.444,345.8 427.029,345.8L427.069,345.8C427.646,345.8 428.14,346.007 428.553,346.42C428.969,346.835 429.173,347.33 429.173,347.906L429.173,356.446C429.173,357.033 428.969,357.527 428.553,357.933C428.14,358.346 427.646,358.551 427.069,358.551L427.029,358.551Z" style="fill:white;fill-rule:nonzero;"/>
                </g>
                <g transform="matrix(1,0,0,1,0,-15)">
                    <path d="M444.253,356.652C444.253,357.195 444.06,357.66 443.671,358.048C443.284,358.434 442.816,358.63 442.265,358.63L442.226,358.63C441.682,358.63 441.218,358.434 440.831,358.048C440.44,357.659 440.247,357.194 440.247,356.652L440.247,351.781C440.247,350.326 439.844,349.399 439.032,349.002C438.18,348.589 437.298,348.663 436.386,349.223C435.585,349.714 435.128,350.254 435.013,350.838C434.998,350.924 434.987,351.028 434.978,351.149C434.987,351.14 434.982,351.145 434.964,351.16L434.964,356.653C434.964,357.196 434.772,357.661 434.382,358.049C433.992,358.435 433.528,358.631 432.988,358.631L432.922,358.631C432.38,358.631 431.914,358.435 431.526,358.049C431.14,357.66 430.943,357.195 430.943,356.653L430.943,347.117C430.943,346.757 431.071,346.45 431.322,346.201C431.578,345.942 431.888,345.811 432.251,345.811L433.738,345.811C434.089,345.811 434.392,345.942 434.64,346.201C434.891,346.45 435.013,346.753 435.013,347.104L435.013,347.117C436.644,346.163 437.652,345.645 438.038,345.568C440.009,345.163 441.574,345.684 442.731,347.13C443.729,348.398 444.232,350.038 444.241,352.053L444.253,356.652Z" style="fill:white;fill-rule:nonzero;"/>
                </g>
                <g transform="matrix(1,0,0,1,0,-15)">
                    <path d="M445.687,356.459C445.79,356.063 446.021,355.766 446.373,355.568C446.727,355.369 447.096,355.332 447.484,355.451C448.234,355.683 448.908,355.799 449.513,355.799C450.641,355.799 451.205,355.451 451.205,354.754C451.205,354.418 451.077,354.147 450.817,353.938C450.569,353.743 450.077,353.518 449.344,353.268C446.879,352.452 445.664,351.17 445.699,349.429C445.699,348.215 446.168,347.217 447.107,346.432C448.072,345.641 449.332,345.243 450.882,345.243C451.662,345.243 452.419,345.339 453.155,345.529C453.524,345.624 453.808,345.83 454.008,346.149C454.207,346.475 454.257,346.825 454.163,347.196L454.149,347.22C454.062,347.591 453.85,347.874 453.514,348.073C453.179,348.272 452.827,348.32 452.455,348.216C451.938,348.071 451.461,347.998 451.021,347.998C450.013,347.998 449.509,348.337 449.509,349.018C449.509,349.328 449.655,349.585 449.95,349.792C450.221,349.991 450.762,350.228 451.563,350.504C453.83,351.286 454.975,352.601 455.001,354.444C455.001,355.684 454.541,356.675 453.616,357.415C452.643,358.199 451.276,358.592 449.509,358.592C448.501,358.592 447.548,358.458 446.654,358.192C446.291,358.08 446.017,357.861 445.828,357.533C445.637,357.206 445.592,356.857 445.683,356.486L445.683,356.459L445.687,356.459Z" style="fill:white;fill-rule:nonzero;"/>
                </g>
                <g transform="matrix(1,0,0,1,0,-15)">
                    <path d="M460.521,363.232C460.521,363.533 460.411,363.793 460.198,364.007C459.992,364.213 459.736,364.318 459.435,364.318L455.894,364.318C455.593,364.318 455.34,364.214 455.132,364.007C454.915,363.792 454.81,363.532 454.81,363.232L454.81,363.22C454.81,362.917 454.915,362.659 455.132,362.445C455.34,362.236 455.593,362.133 455.894,362.133L456.386,362.133C456.689,362.133 456.943,362.027 457.148,361.811C457.361,361.604 457.472,361.351 457.472,361.05L457.472,342.908C457.472,342.615 457.361,342.362 457.148,342.146C456.943,341.937 456.689,341.835 456.386,341.835L455.894,341.835C455.593,341.835 455.34,341.726 455.132,341.511C454.915,341.296 454.81,341.042 454.81,340.748L454.81,340.724C454.81,340.422 454.915,340.167 455.132,339.961C455.34,339.745 455.593,339.638 455.894,339.638L459.435,339.638C459.736,339.638 459.992,339.745 460.198,339.961C460.411,340.167 460.521,340.422 460.521,340.724L460.521,363.232Z" style="fill:white;fill-rule:nonzero;"/>
                </g>
                <g transform="matrix(1,0,0,1,0,-15)">
                    <path d="M440.673,364.099C439.948,364.099 439.361,363.512 439.361,362.787C439.361,362.143 438.521,361.579 437.563,361.579C436.603,361.579 435.764,362.143 435.764,362.787C435.764,363.512 435.175,364.099 434.452,364.099C433.729,364.099 433.142,363.512 433.142,362.787C433.142,360.675 435.124,358.957 437.563,358.957C440.002,358.957 441.984,360.675 441.984,362.787C441.983,363.512 441.396,364.099 440.673,364.099Z" style="fill:white;fill-rule:nonzero;"/>
                </g>
            </g>
        </g>
    </g>
    <g transform="matrix(0.098245,-6.72965e-05,6.72965e-05,0.098245,370.442,79.1988)">
        <path d="M1022.01,875.42C1022.01,956.379 956.392,1022.01 875.426,1022.01L146.609,1022.01C65.618,1022.01 0,956.379 0,875.42L0,146.59C0,65.612 65.618,0 146.609,0L875.425,0C956.391,0 1022.01,65.612 1022.01,146.59L1022.01,875.42L1022.01,875.42Z" style="fill:rgb(104,143,194);fill-rule:nonzero;"/>
    </g>
    <g transform="matrix(0.098245,-6.72965e-05,6.72965e-05,0.098245,370.442,79.1988)">
        <path d="M186.884,728.063L344.611,368.644" style="fill:none;stroke:black;stroke-width:64.83px;"/>
    </g>
    <g transform="matrix(0.098245,-6.72965e-05,6.72965e-05,0.098245,370.442,79.1988)">
        <path d="M344.611,368.644L522.473,596.029" style="fill:none;stroke:black;stroke-width:64.83px;"/>
    </g>
    <g transform="matrix(0.098245,-6.72965e-05,6.72965e-05,0.098245,370.442,79.1988)">
        <path d="M522.473,596.029L720.518,253.103" style="fill:none;stroke:black;stroke-width:64.83px;"/>
    </g>
    <g transform="matrix(0.098245,-6.72965e-05,6.72965e-05,0.098245,370.442,79.1988)">
        <path d="M720.518,253.103L832.887,651.131" style="fill:none;stroke:black;stroke-width:64.83px;"/>
    </g>
    <g transform="matrix(0.098245,-6.72965e-05,6.72965e-05,0.098245,370.442,79.1988)">
        <path d="M274.916,728.063C274.916,776.669 235.509,816.076 186.884,816.076C138.284,816.076 98.878,776.67 98.878,728.063C98.878,679.451 138.284,640.044 186.884,640.044C235.509,640.045 274.916,679.451 274.916,728.063Z" style="fill:rgb(255,128,0);fill-rule:nonzero;stroke:black;stroke-width:64.83px;"/>
    </g>
    <g transform="matrix(0.098245,-6.72965e-05,6.72965e-05,0.098245,370.442,79.1988)">
        <path d="M432.617,368.644C432.617,417.244 393.211,456.663 344.611,456.663C296.011,456.663 256.58,417.244 256.58,368.644C256.58,320.019 296.012,280.613 344.611,280.613C393.21,280.613 432.617,320.019 432.617,368.644Z" style="fill:rgb(255,128,0);fill-rule:nonzero;stroke:black;stroke-width:64.83px;"/>
    </g>
    <g transform="matrix(0.098245,-6.72965e-05,6.72965e-05,0.098245,370.442,79.1988)">
        <path d="M610.479,596.029C610.479,644.641 571.073,684.048 522.473,684.048C473.873,684.048 434.441,644.642 434.441,596.029C434.441,547.41 473.874,508.016 522.473,508.016C571.072,508.016 610.479,547.41 610.479,596.029Z" style="fill:rgb(255,128,0);fill-rule:nonzero;stroke:black;stroke-width:64.83px;"/>
    </g>
    <g transform="matrix(0.098245,-6.72965e-05,6.72965e-05,0.098245,370.442,79.1988)">
        <path d="M808.523,253.103C808.523,301.734 769.117,341.128 720.517,341.128C671.892,341.128 632.486,301.734 632.486,253.103C632.486,204.497 671.892,165.09 720.517,165.09C769.117,165.09 808.523,204.497 808.523,253.103Z" style="fill:rgb(65,170,84);fill-rule:nonzero;stroke:black;stroke-width:64.83px;"/>
    </g>
    <g transform="matrix(0.098245,-6.72965e-05,6.72965e-05,0.098245,370.442,79.1988)">
        <path d="M925.122,652.523C925.122,701.123 885.716,740.53 837.116,740.53C788.491,740.53 749.085,701.123 749.085,652.523C749.085,603.899 788.491,564.499 837.116,564.499C885.716,564.499 925.122,603.899 925.122,652.523Z" style="fill:rgb(255,128,0);fill-rule:nonzero;stroke:black;stroke-width:64.83px;"/>
    </g>
</svg>
