<svg height="25" viewBox="0 0 16 15" fill="none" xmlns="http://www.w3.org/2000/svg">
<g clip-path="url(#clip0_513_2187)">
<path d="M7.92438 14.75C11.2654 13.4755 13.8204 10.641 13.9214 7.44C13.9554 6.369 13.9214 2.7315 13.9214 2.7315C13.9214 2.7315 12.7894 2.5625 12.1759 1.905C11.5624 1.2475 11.5564 0.25 11.5564 0.25H4.24338C4.24338 0.25 4.18338 1.316 3.57038 1.974C2.95738 2.632 1.87888 2.7315 1.87888 2.7315C1.87888 2.7315 1.84488 6.3685 1.87888 7.44C1.97988 10.641 4.06538 13.3085 7.92438 14.75Z" stroke="#FF7373" fill="#FF7373" stroke-width="0.577778" stroke-miterlimit="10"/>
<path d="M7.91483 11.9324C9.95733 11.1534 11.5193 9.42037 11.5808 7.46337C11.6013 6.80837 11.5808 4.58487 11.5808 4.58487L10.1353 3.06787H5.66433L4.21883 4.58487C4.21883 4.58487 4.19833 6.80837 4.21883 7.46337C4.28033 9.42037 5.55583 11.0514 7.91483 11.9324Z" stroke="white" fill="#FF7373" stroke-width="0.577778" stroke-miterlimit="10"/>
</g>
<defs>
<clipPath id="clip0_513_2187">
<rect width="15" height="15" fill="white" transform="translate(0.399902)"/>
</clipPath>
</defs>
</svg>
