<svg width="16" height="15" viewBox="0 0 16 15" fill="none" xmlns="http://www.w3.org/2000/svg">
<g clip-path="url(#clip0_532_323)">
<path d="M7.69994 14.763C7.69994 14.763 10.0369 10.9335 11.5989 8.26248C13.1609 5.59198 12.8589 3.65148 11.4224 1.91298C9.98644 0.174982 7.69994 0.250482 7.69994 0.250482C7.69994 0.250482 5.41344 0.174982 3.97744 1.91348C2.54144 3.65198 2.23894 5.59198 3.80094 8.26298C5.36294 10.9335 7.69994 14.7635 7.69994 14.7635V14.763Z" stroke="white" stroke-width="1" stroke-miterlimit="10"/>
<path d="M7.69793 6.14195C8.68293 6.14195 9.48143 5.34345 9.48143 4.35845C9.48143 3.37345 8.68293 2.57495 7.69793 2.57495C6.71293 2.57495 5.91443 3.37345 5.91443 4.35845C5.91443 5.34345 6.71293 6.14195 7.69793 6.14195Z" stroke="white" stroke-width="1" stroke-miterlimit="10"/>
</g>
<defs>
<clipPath id="clip0_532_323">
<rect width="15" height="15" fill="white" transform="translate(0.199951)"/>
</clipPath>
</defs>
</svg>
