<svg height="25" viewBox="0 0 16 15" fill="none" xmlns="http://www.w3.org/2000/svg">
<g clip-path="url(#clip0_532_318)">
<path d="M7.9245 14.75C11.2655 13.4755 13.8205 10.641 13.9215 7.44C13.9555 6.369 13.9215 2.7315 13.9215 2.7315C13.9215 2.7315 12.7895 2.5625 12.176 1.905C11.5625 1.2475 11.5565 0.25 11.5565 0.25H4.2435C4.2435 0.25 4.1835 1.316 3.5705 1.974C2.9575 2.632 1.879 2.7315 1.879 2.7315C1.879 2.7315 1.845 6.3685 1.879 7.44C1.98 10.641 4.0655 13.3085 7.9245 14.75Z" stroke="white" stroke-width="1" stroke-miterlimit="10"/>
<path d="M7.91495 11.9324C9.95745 11.1534 11.5195 9.42037 11.581 7.46337C11.6015 6.80837 11.581 4.58487 11.581 4.58487L10.1355 3.06787H5.66445L4.21895 4.58487C4.21895 4.58487 4.19845 6.80837 4.21895 7.46337C4.28045 9.42037 5.55595 11.0514 7.91495 11.9324Z" stroke="white" stroke-width="1" stroke-miterlimit="10"/>
</g>
<defs>
<clipPath id="clip0_532_318">
<rect width="15" height="15" fill="white" transform="translate(0.400024)"/>
</clipPath>
</defs>
</svg>
