<svg width="20" height="21" viewBox="0 0 20 21" fill="none" xmlns="http://www.w3.org/2000/svg">
<path d="M6.98927 14.5V6.305H10.4433C10.9859 6.305 11.4479 6.40033 11.8293 6.591C12.2179 6.77433 12.5149 7.03833 12.7203 7.383C12.9329 7.72033 13.0393 8.131 13.0393 8.615C13.0393 8.989 12.9366 9.341 12.7313 9.671C12.5333 9.99367 12.2143 10.2613 11.7743 10.474V9.781C12.1776 9.935 12.4966 10.1257 12.7313 10.353C12.9659 10.5803 13.1309 10.8333 13.2263 11.112C13.3216 11.3907 13.3693 11.684 13.3693 11.992C13.3693 12.7767 13.1089 13.3927 12.5883 13.84C12.0749 14.28 11.3599 14.5 10.4433 14.5H6.98927ZM8.48527 13.18H10.5973C10.9859 13.18 11.2939 13.0737 11.5213 12.861C11.7559 12.641 11.8733 12.3513 11.8733 11.992C11.8733 11.6327 11.7559 11.343 11.5213 11.123C11.2939 10.903 10.9859 10.793 10.5973 10.793H8.48527V13.18ZM8.48527 9.484H10.5203C10.8283 9.484 11.0739 9.396 11.2573 9.22C11.4406 9.03667 11.5323 8.802 11.5323 8.516C11.5323 8.23 11.4406 8.00267 11.2573 7.834C11.0739 7.66533 10.8283 7.581 10.5203 7.581H8.48527V9.484Z" fill="#909090"/>
<rect y="0.5" width="20" height="20" stroke="#909090"/>
</svg>
