<svg width="30" height="21" viewBox="0 0 30 21" fill="none" xmlns="http://www.w3.org/2000/svg">
<path d="M8.62034 14.5V6.305H9.50034V9.99H13.9003V6.305H14.7803V14.5H13.9003V10.815H9.50034V14.5H8.62034ZM16.39 14.5V13.95L18.678 11.431C19.1253 10.9397 19.4883 10.5327 19.767 10.21C20.053 9.88733 20.2656 9.594 20.405 9.33C20.5443 9.066 20.614 8.78 20.614 8.472C20.614 7.98067 20.471 7.603 20.185 7.339C19.899 7.075 19.5176 6.943 19.041 6.943C18.5496 6.943 18.1353 7.08233 17.798 7.361C17.468 7.63967 17.2443 8.02833 17.127 8.527L16.324 8.351C16.4193 7.90367 16.5916 7.51867 16.841 7.196C17.0903 6.87333 17.402 6.624 17.776 6.448C18.15 6.26467 18.568 6.173 19.03 6.173C19.5213 6.173 19.9503 6.272 20.317 6.47C20.6836 6.668 20.9696 6.93933 21.175 7.284C21.3876 7.62867 21.494 8.02467 21.494 8.472C21.494 8.78 21.428 9.077 21.296 9.363C21.1713 9.649 20.9806 9.957 20.724 10.287C20.4673 10.617 20.1373 11.002 19.734 11.442L17.655 13.73H21.714V14.5H16.39Z" fill="#909090"/>
</svg>
