<svg width="30" height="21" viewBox="0 0 30 21" fill="none" xmlns="http://www.w3.org/2000/svg">
<path d="M8.56663 14.5V6.305H9.44663V9.99H13.8466V6.305H14.7266V14.5H13.8466V10.815H9.44663V14.5H8.56663ZM18.9322 14.632C18.5069 14.632 18.1146 14.5587 17.7552 14.412C17.3959 14.2653 17.0806 14.0563 16.8092 13.785C16.5452 13.5137 16.3436 13.191 16.2042 12.817L16.9082 12.487C17.0769 12.9123 17.3409 13.2497 17.7002 13.499C18.0596 13.741 18.4702 13.862 18.9322 13.862C19.2989 13.862 19.6252 13.7923 19.9112 13.653C20.1972 13.5063 20.4209 13.2973 20.5822 13.026C20.7436 12.7547 20.8242 12.4247 20.8242 12.036C20.8242 11.6473 20.7399 11.3173 20.5712 11.046C20.4099 10.7747 20.1862 10.5693 19.9002 10.43C19.6142 10.2907 19.2879 10.221 18.9212 10.221C18.8259 10.221 18.7196 10.2247 18.6022 10.232C18.4922 10.2393 18.4006 10.2503 18.3272 10.265L18.1512 9.88L20.3622 7.075H16.5892V6.305H21.3522V7.075L19.2842 9.682L19.1742 9.539C19.6656 9.55367 20.1019 9.671 20.4832 9.891C20.8646 10.1037 21.1616 10.3933 21.3742 10.76C21.5942 11.1267 21.7042 11.552 21.7042 12.036C21.7042 12.52 21.5869 12.96 21.3522 13.356C21.1176 13.7447 20.7912 14.0563 20.3732 14.291C19.9552 14.5183 19.4749 14.632 18.9322 14.632Z" fill="#909090"/>
<rect x="0.25" y="0.75" width="29.5" height="19.5" stroke="#909090" stroke-width="0.5"/>
</svg>
