<svg width="32" height="21" viewBox="0 0 32 21" fill="none" xmlns="http://www.w3.org/2000/svg">
<path d="M21.2904 6.04492H10.3894" stroke="#909090" stroke-miterlimit="10"/>
<path d="M8.70972 6.79937V5.29102" stroke="#909090" stroke-width="0.5" stroke-miterlimit="10"/>
<path d="M21.5001 10.6965H10.5991" stroke="#909090" stroke-miterlimit="10"/>
<path d="M8.5 10.2438C8.5 10.2438 8.55239 9.79932 8.96216 9.79932C9.37192 9.79932 9.39785 10.176 9.33939 10.3166C9.29141 10.433 9.20813 10.5135 9.07963 10.5951C8.88495 10.7181 8.77354 10.7071 8.63291 10.9095C8.5171 11.076 8.54633 11.2685 8.54633 11.2685H9.42487" stroke="#909090" stroke-width="0.5" stroke-miterlimit="10"/>
<path d="M21.4723 14.9888H10.5713" stroke="#909090" stroke-miterlimit="10"/>
<path d="M8.93447 14.8962C9.10764 14.8962 9.24827 14.7555 9.24827 14.5824C9.24827 14.4092 9.10764 14.2686 8.93447 14.2686C8.85119 14.2686 8.77784 14.3039 8.71938 14.354C8.66092 14.4042 8.60632 14.5294 8.60632 14.5294" stroke="#909090" stroke-width="0.5" stroke-miterlimit="10"/>
<path d="M8.52795 15.3025C8.52795 15.5269 8.70995 15.7089 8.93441 15.7089C9.15887 15.7089 9.34087 15.5269 9.34087 15.3025C9.34087 15.078 9.15887 14.896 8.93441 14.896H8.76179" stroke="#909090" stroke-width="0.5" stroke-miterlimit="10"/>
</svg>
