<svg width="20" height="21" viewBox="0 0 20 21" fill="none" xmlns="http://www.w3.org/2000/svg">
<path d="M9.99893 14.632C9.41959 14.632 8.90993 14.511 8.46993 14.269C8.02993 14.027 7.68893 13.697 7.44693 13.279C7.20493 12.8537 7.08393 12.3697 7.08393 11.827V6.305H7.96393V11.827C7.96393 12.223 8.04826 12.5713 8.21693 12.872C8.39293 13.1653 8.63126 13.3963 8.93193 13.565C9.23993 13.7263 9.59559 13.807 9.99893 13.807C10.4023 13.807 10.7543 13.7263 11.0549 13.565C11.3629 13.3963 11.6013 13.1653 11.7699 12.872C11.9459 12.5713 12.0339 12.223 12.0339 11.827V6.305H12.9139V11.827C12.9139 12.3697 12.7929 12.8537 12.5509 13.279C12.3089 13.697 11.9679 14.027 11.5279 14.269C11.0953 14.511 10.5856 14.632 9.99893 14.632Z" fill="#909090"/>
<path d="M6.14893 16.425H13.8489V16.865H6.14893V16.425Z" fill="#909090"/>
<rect x="0.25" y="0.75" width="19.5" height="19.5" stroke="#909090" stroke-width="0.5"/>
</svg>
