<svg width="172" height="172" viewBox="0 0 172 172" fill="none" xmlns="http://www.w3.org/2000/svg">
    <path
        d="M86 169.133C131.913 169.133 169.133 131.913 169.133 86C169.133 40.0868 131.913 2.8667 86 2.8667C40.0868 2.8667 2.8667 40.0868 2.8667 86C2.8667 131.913 40.0868 169.133 86 169.133Z"
        fill="#82E6CE" />
    <path
        d="M86 42.3635C76.7808 42.3635 69.3103 49.7882 69.3103 58.9443V80.3927C69.3103 89.5489 76.7808 96.9735 86 96.9735C95.2192 96.9735 102.69 89.5489 102.69 80.3927V58.9443C102.69 49.7882 95.2192 42.3635 86 42.3635V42.3635Z"
        stroke="white" stroke-width="2.5" stroke-miterlimit="10" />
    <path
        d="M59.6267 83.1045C59.6267 97.6672 71.4316 109.478 86 109.478C100.563 109.478 112.373 97.6729 112.373 83.1045"
        stroke="white" stroke-width="2.5" stroke-miterlimit="10" />
    <path d="M86 109.478V129.636" stroke="white" stroke-width="2.5" stroke-miterlimit="10" />
    <path d="M112.373 129.636H59.6267" stroke="white" stroke-width="2.5" stroke-miterlimit="10" />
</svg>
