<svg width="30" height="29" viewBox="0 0 30 29" fill="none" xmlns="http://www.w3.org/2000/svg">
<path d="M3.76942 11.404L4.96637 8.54568L3.35613 5.56919L6.13493 2.82429L9.15118 4.4119L12.0405 3.22955L13.0327 0H16.9631L17.9552 3.22955L20.8488 4.4119L23.8621 2.8213L26.6408 5.56621L25.0306 8.54269L26.2306 11.3998L29.5 12.3798V16.2623L26.2306 17.2424L25.0336 20.1007L26.6439 23.0771L23.8651 25.8221L20.8518 24.2315L17.9595 25.4168L16.9673 28.6463H13.0369L12.0448 25.4168L9.15118 24.2344L6.13795 25.825L3.35915 23.0801L4.96939 20.1036L3.76942 17.2465L0.5 16.2665V12.384L3.76942 11.404ZM14.9994 7.61459C11.249 7.61459 8.2086 10.6179 8.2086 14.3226C8.2086 18.0272 11.249 21.0306 14.9994 21.0306C18.7498 21.0306 21.7902 18.0272 21.7902 14.3226C21.7902 10.6179 18.7498 7.61459 14.9994 7.61459Z" fill="#82E6CE"/>
</svg>
