<svg width="30" height="31" viewBox="0 0 30 31" fill="none" xmlns="http://www.w3.org/2000/svg">
    <path d="M14.9999 22.2911C18.7505 22.2911 21.791 19.2507 21.791 15.5001C21.791 11.7495 18.7505 8.70898 14.9999 8.70898C11.2493 8.70898 8.20886 11.7495 8.20886 15.5001C8.20886 19.2507 11.2493 22.2911 14.9999 22.2911Z" stroke="white" stroke-width="1.3" stroke-miterlimit="10"/>
    <path d="M3.76955 12.5453L4.96656 9.65094L3.35625 6.63818L6.13516 3.85867L9.15154 5.46595L12.041 4.26955L13.0326 1H16.9632L17.9553 4.26955L20.8491 5.46595L23.8624 3.85565L26.6413 6.63456L25.031 9.64791L26.231 12.5404L29.5 13.5326V17.4626L26.231 18.4547L25.034 21.3485L26.6444 24.3618L23.8654 27.1407L20.8521 25.5304L17.9596 26.7304L16.968 30H13.0374L12.0453 26.7304L9.15154 25.5334L6.13818 27.1444L3.35927 24.3648L4.96958 21.3515L3.76955 18.459L0.5 17.4674V13.5368L3.76955 12.5453Z" stroke="white" stroke-width="1.3" stroke-miterlimit="10"/>
</svg>
