<svg width="29" height="29" viewBox="0 0 29 29" fill="none" xmlns="http://www.w3.org/2000/svg">
<g clip-path="url(#clip0_202_1360)">
<path d="M28.4183 28.4182H0.581741V0.581726H28.4183V28.4182ZM17.5288 8.54977H3.84192V8.89777H17.5288V8.54977ZM17.5288 14.8491H3.84192V15.1971H17.5288V14.8491ZM17.5288 21.1485H3.84192V21.4965H17.5288V21.1485ZM25.2863 6.43567L25.0601 6.17177L21.3724 9.33277L20.5552 8.14377L20.2687 8.34097L21.3057 9.84897L25.2874 6.43625L25.2863 6.43567ZM25.2863 12.4624L25.0601 12.1985L21.3724 15.3595L20.5552 14.1705L20.2687 14.3677L21.3057 15.8757L25.2874 12.463L25.2863 12.4624ZM25.2863 18.4892L25.0601 18.2253L21.3724 21.3863L20.5552 20.1973L20.2687 20.3945L21.3057 21.9025L25.2874 18.4898L25.2863 18.4892Z" fill="#80E3CB"/>
</g>
<defs>
<clipPath id="clip0_202_1360">
<rect width="29" height="29" fill="white"/>
</clipPath>
</defs>
</svg>
